<svg width="22" height="16" viewBox="0 0 22 16" fill="none" xmlns="http://www.w3.org/2000/svg">
<path fill-rule="evenodd" clip-rule="evenodd" d="M2.13488 1C1.76852 1 1.63086 1.23211 1.63086 1.33874V14.6613C1.63086 14.7679 1.76852 15 2.13488 15H20.1268C20.4932 15 20.6309 14.7679 20.6309 14.6613V1.33874C20.6309 1.23211 20.4932 1 20.1268 1H2.13488ZM0.630859 1.33874C0.630859 0.51892 1.39222 0 2.13488 0H20.1268C20.8695 0 21.6309 0.51892 21.6309 1.33874V14.6613C21.6309 15.4811 20.8695 16 20.1268 16H2.13488C1.39222 16 0.630859 15.4811 0.630859 14.6613V1.33874Z" fill="#F6B426"/>
<path fill-rule="evenodd" clip-rule="evenodd" d="M0.852539 0.915161L1.41 0.0849609L11.5486 6.89288L20.8426 0.321213L21.4199 1.13772L11.5633 8.10725L0.852539 0.915161Z" fill="#F6B426"/>
</svg>
