<svg width="24" height="23" viewBox="0 0 24 23" fill="none" xmlns="http://www.w3.org/2000/svg">
<path fill-rule="evenodd" clip-rule="evenodd" d="M12.1309 1C6.33187 1 1.63086 5.70101 1.63086 11.5C1.63086 17.299 6.33187 22 12.1309 22C17.9298 22 22.6309 17.299 22.6309 11.5C22.6309 5.70101 17.9298 1 12.1309 1ZM0.630859 11.5C0.630859 5.14873 5.77958 0 12.1309 0C18.4821 0 23.6309 5.14873 23.6309 11.5C23.6309 17.8513 18.4821 23 12.1309 23C5.77958 23 0.630859 17.8513 0.630859 11.5Z" fill="#F6B426"/>
<path fill-rule="evenodd" clip-rule="evenodd" d="M11.6309 2.5H12.6309V11.4575L17.4331 15.1017L16.8286 15.8983L11.6309 11.954V2.5Z" fill="#F6B426"/>
</svg>
